<svg id="b85abef1-ce5e-4b18-b3bc-e095eb998efd" data-name="Layer 1" xmlns="http://www.w3.org/2000/svg" viewBox="0 0 512 512"><rect x="-30" y="-28" width="582" height="571" style="fill:#fff"/><path d="M352.88,206l-26.26,66.14-17.33-92.53a144.89,144.89,0,0,0-23-6L257,299,223.24,174.15A142.18,142.18,0,0,0,201.68,180l-17.25,92.16-26-65.48a116.51,116.51,0,0,0-11,12.31c-15.49,20-28.7,53.83-22.68,77.23,7.8,30.36,28.05,28.67,28.91,28.57l.55,0h204l.3,0c.81.08,21.06,1.78,28.86-28.58,6-23.4-7.19-57.26-22.68-77.23A115.62,115.62,0,0,0,352.88,206Z" style="fill:none"/><path d="M256.29,257.6l19.91-85.34a184.56,184.56,0,0,0-20.2-1.1,182.39,182.39,0,0,0-22.72,1.41Z" style="fill:none"/><path d="M191,184.41a120,120,0,0,0-24.5,15.18L180.92,236Z" style="fill:none"/><path d="M344.8,199a119.8,119.8,0,0,0-24.22-14.81L330.12,236Z" style="fill:none"/><path d="M372.6,212.8c-18.26-23.54-53.26-51.6-116.35-51.75h-.5c-63.09.15-98.09,28.21-116.35,51.75-23,29.62-29.7,65.66-24.48,85.95,5.18,20.13,15.5,28.9,23.25,32.71a32.11,32.11,0,0,0,16.25,3.42H357.58c.38,0,1,.07,1.78.07a33.3,33.3,0,0,0,14.47-3.49c7.75-3.81,18.07-12.58,23.25-32.71C402.3,278.46,395.56,242.42,372.6,212.8ZM344.8,199,330.12,236l-9.54-51.76A119.8,119.8,0,0,1,344.8,199Zm-68.6-26.76L256.29,257.6l-23-85A182.39,182.39,0,0,1,256,171.16,184.56,184.56,0,0,1,276.2,172.26ZM191,184.41,180.92,236l-14.44-36.38A120,120,0,0,1,191,184.41ZM387.29,296.23c-7.8,30.36-28.05,28.66-28.86,28.58l-.3,0h-204l-.55,0c-.86.1-21.11,1.79-28.91-28.57-6-23.4,7.19-57.26,22.68-77.23a116.51,116.51,0,0,1,11-12.31l26,65.48L201.68,180a142.18,142.18,0,0,1,21.56-5.86L257,299l29.24-125.29a144.89,144.89,0,0,1,23,6l17.33,92.53L352.88,206a115.62,115.62,0,0,1,11.73,13C380.1,239,393.31,272.83,387.29,296.23Z"/></svg>