<svg id="ecae2b7d-8784-495f-ba91-de934797eb75" data-name="Layer 1" xmlns="http://www.w3.org/2000/svg" viewBox="0 0 1191.98 124"><path d="M307.23,124.22H259.92V.38h47.31C318.31.38,325.88,8,325.88,19V45.31c0,7.61-3.17,12.39-8.8,14.33V60c5.63,1.77,8.8,6.72,8.8,14.33v31.14C325.88,116.61,318.31,124.22,307.23,124.22Zm-3.34-74.84V21.43a.65.65,0,0,0-.7-.71H281.9V50.09h21.29A.65.65,0,0,0,303.89,49.38Zm0,53.79V70.26a.76.76,0,0,0-.7-.71H281.9v34.32h21.29A.75.75,0,0,0,303.89,103.17Z"/><path d="M386.21,124.22l-12.49-48.3h-10.2v48.3h-22V.38h47.32C399.93.38,407.49,8,407.49,19V57.34c0,9-4.92,15.75-13,17.87l14.77,49ZM363.52,55.58H384.8a.65.65,0,0,0,.71-.71V21.43a.65.65,0,0,0-.71-.71H363.52Z"/><path d="M423.15,124.22V.38h57.16V20.72H445.13V50.09h26.39V69.55H445.13v34.32h35.18v20.35Z"/><path d="M539.76,107.41H513l-3.34,16.81h-23L513,.38h26.56L566,124.22h-23ZM535.9,88l-9-47.24-.52-4.42-.53,4.42L516.72,88Z"/><path d="M623.14,124.22H575.83V.38h47.31C634.22.38,641.78,8,641.78,19v86.52C641.78,116.61,634.22,124.22,623.14,124.22Zm-3.34-21V21.43a.65.65,0,0,0-.71-.71H597.81v83.15h21.28A.75.75,0,0,0,619.8,103.17Z"/><path d="M785.49,124.22H759.64L747.15,43l-.35-4.07L746.27,43l-12.49,81.21H708.1L687,.38h23.4l11.43,81.73.53,5,.52-5L734.31.38h25.15l11.08,81.73.53,5.13.53-5.13L783.38.38H806.6Z"/><path d="M857.44,107.41H830.7l-3.34,16.81h-23L830.7.38h26.56l26.38,123.84h-23ZM853.57,88l-9-47.24-.53-4.42-.53,4.42L834.39,88Z"/><path d="M937.82,124.22,913.9,52.57l-.53-2.48v74.13H891.74V.38h23.39l20.4,63.33.53,2.66V.38H957.7V124.22Z"/><path d="M1023.48,124.22,1004.84,78l-9.5,19.11v27.07h-22V.38h22V57.52L1023,.38h23l-26.92,54.31,29,69.53Z"/><path d="M1055,124.22V.38h57.16V20.72H1077V50.09h26.38V69.55H1077v34.32h35.17v20.35Z"/><path d="M1169.12,124.22l-12.49-48.3h-10.2v48.3h-22V.38h47.31c11.08,0,18.65,7.6,18.65,18.57V57.34c0,9-4.93,15.75-13,17.87l14.77,49Zm-22.69-68.64h21.29a.65.65,0,0,0,.7-.71V21.43a.65.65,0,0,0-.7-.71h-21.29Z"/><path d="M169.7,32.63,151.12,79.7,138.86,13.86a100.19,100.19,0,0,0-16.31-4.24L101.87,98.77,78,10a100.21,100.21,0,0,0-15.25,4.17L50.52,79.7,32.12,33.11a82.06,82.06,0,0,0-7.8,8.75c-11,14.22-20.31,38.31-16,55,5.52,21.61,19.84,20.4,20.45,20.34l.4,0H173.41l.21,0c.57.06,14.9,1.27,20.43-20.34,4.25-16.65-5.1-40.74-16.05-55A84.42,84.42,0,0,0,169.7,32.63Z" style="fill:none"/><path d="M101.36,69.33,115.45,8.6a129.41,129.41,0,0,0-14.29-.78,127.07,127.07,0,0,0-16.08,1Z" style="fill:none"/><path d="M55.16,17.25a84.7,84.7,0,0,0-17.34,10.8L48,53.94Z" style="fill:none"/><path d="M164,27.64a84.54,84.54,0,0,0-17.14-10.53l6.76,36.83Z" style="fill:none"/><path d="M183.65,37.45C170.73,20.7,146,.73,101.33.63H101C56.34.73,31.58,20.7,18.67,37.45,2.42,58.53-2.35,84.17,1.34,98.61s11,20.57,16.46,23.28a22.64,22.64,0,0,0,11.49,2.44H173c.27,0,.7,0,1.27,0a23.4,23.4,0,0,0,10.23-2.49c5.48-2.71,12.79-9,16.45-23.28S199.9,58.53,183.65,37.45ZM164,27.64,153.6,53.94l-6.76-36.83A84.54,84.54,0,0,1,164,27.64Zm-48.53-19L101.36,69.33,85.08,8.82a127.07,127.07,0,0,1,16.08-1A129.41,129.41,0,0,1,115.45,8.6ZM55.16,17.25,48,53.94,37.82,28.05A84.7,84.7,0,0,1,55.16,17.25ZM194.05,96.82c-5.53,21.61-19.86,20.4-20.43,20.34l-.21,0H29.12l-.4,0c-.61.06-14.93,1.27-20.45-20.34C4,80.17,13.36,56.08,24.32,41.86a82.06,82.06,0,0,1,7.8-8.75L50.52,79.7,62.73,14.12A100.21,100.21,0,0,1,78,10l23.89,88.82L122.55,9.62a100.19,100.19,0,0,1,16.31,4.24L151.12,79.7,169.7,32.63a84.42,84.42,0,0,1,8.3,9.23C189,56.08,198.3,80.17,194.05,96.82Z"/></svg>